<mxfile host="app.diagrams.net" agent="Mozilla/5.0 (Macintosh; Intel Mac OS X 10_15_7) AppleWebKit/537.36 (KHTML, like Gecko) Chrome/140.0.0.0 Safari/537.36 Edg/140.0.0.0" version="28.2.3">
  <diagram name="第 1 页" id="meoVaIgWw2dQw-G240K0">
    <mxGraphModel dx="994" dy="565" grid="1" gridSize="10" guides="1" tooltips="1" connect="1" arrows="1" fold="1" page="1" pageScale="1" pageWidth="1169" pageHeight="827" math="0" shadow="0">
      <root>
        <mxCell id="0" />
        <mxCell id="1" parent="0" />
        <mxCell id="uARda2XG1U_MiIhJAIZU-1" value="" style="rounded=0;whiteSpace=wrap;html=1;fillColor=#f5f5f5;fontColor=#333333;strokeColor=#666666;" parent="1" vertex="1">
          <mxGeometry x="300" y="250" width="610" height="280" as="geometry" />
        </mxCell>
        <mxCell id="uARda2XG1U_MiIhJAIZU-2" value="&lt;font style=&quot;font-size: 20px&quot;&gt;JVM虚拟机&lt;/font&gt;" style="text;html=1;strokeColor=none;fillColor=none;align=center;verticalAlign=middle;whiteSpace=wrap;rounded=0;" parent="1" vertex="1">
          <mxGeometry x="529" y="260" width="150" height="30" as="geometry" />
        </mxCell>
        <mxCell id="uARda2XG1U_MiIhJAIZU-3" value="" style="rounded=0;whiteSpace=wrap;html=1;fontSize=20;fillColor=#dae8fc;strokeColor=#6c8ebf;" parent="1" vertex="1">
          <mxGeometry x="330" y="300" width="400" height="210" as="geometry" />
        </mxCell>
        <mxCell id="uARda2XG1U_MiIhJAIZU-4" style="edgeStyle=none;html=1;exitX=0;exitY=0.5;exitDx=0;exitDy=0;fontSize=12;" parent="1" source="uARda2XG1U_MiIhJAIZU-5" edge="1">
          <mxGeometry relative="1" as="geometry">
            <mxPoint x="730" y="360" as="targetPoint" />
          </mxGeometry>
        </mxCell>
        <mxCell id="uARda2XG1U_MiIhJAIZU-5" value="&lt;font style=&quot;font-size: 12px&quot;&gt;类装载子系统&lt;/font&gt;" style="rounded=0;whiteSpace=wrap;html=1;fontSize=20;" parent="1" vertex="1">
          <mxGeometry x="760" y="330" width="120" height="60" as="geometry" />
        </mxCell>
        <mxCell id="uARda2XG1U_MiIhJAIZU-6" style="edgeStyle=none;html=1;exitX=0;exitY=0.5;exitDx=0;exitDy=0;entryX=1;entryY=0.75;entryDx=0;entryDy=0;fontSize=16;" parent="1" source="uARda2XG1U_MiIhJAIZU-7" target="uARda2XG1U_MiIhJAIZU-3" edge="1">
          <mxGeometry relative="1" as="geometry" />
        </mxCell>
        <mxCell id="uARda2XG1U_MiIhJAIZU-7" value="字节码执行引擎" style="rounded=0;whiteSpace=wrap;html=1;fontSize=12;" parent="1" vertex="1">
          <mxGeometry x="760" y="430" width="120" height="60" as="geometry" />
        </mxCell>
        <mxCell id="uARda2XG1U_MiIhJAIZU-8" value="&lt;font style=&quot;font-size: 16px&quot;&gt;内存模型（运行时数据区）&lt;/font&gt;" style="text;html=1;strokeColor=none;fillColor=none;align=center;verticalAlign=middle;whiteSpace=wrap;rounded=0;fontSize=20;" parent="1" vertex="1">
          <mxGeometry x="440" y="300" width="230" height="30" as="geometry" />
        </mxCell>
        <mxCell id="uARda2XG1U_MiIhJAIZU-9" value="堆" style="rounded=0;whiteSpace=wrap;html=1;fontSize=12;fillColor=#fff2cc;strokeColor=#d6b656;" parent="1" vertex="1">
          <mxGeometry x="340" y="340" width="120" height="60" as="geometry" />
        </mxCell>
        <mxCell id="uARda2XG1U_MiIhJAIZU-10" value="本地方法栈" style="rounded=0;whiteSpace=wrap;html=1;fontSize=12;fillColor=#b1ddf0;strokeColor=#10739e;" parent="1" vertex="1">
          <mxGeometry x="600" y="340" width="120" height="60" as="geometry" />
        </mxCell>
        <mxCell id="uARda2XG1U_MiIhJAIZU-11" value="栈" style="rounded=0;whiteSpace=wrap;html=1;fontSize=12;fillColor=#b1ddf0;strokeColor=#10739e;" parent="1" vertex="1">
          <mxGeometry x="470" y="340" width="120" height="60" as="geometry" />
        </mxCell>
        <mxCell id="uARda2XG1U_MiIhJAIZU-12" value="方法区" style="rounded=0;whiteSpace=wrap;html=1;fontSize=12;fillColor=#fff2cc;strokeColor=#d6b656;" parent="1" vertex="1">
          <mxGeometry x="340" y="430" width="120" height="60" as="geometry" />
        </mxCell>
        <mxCell id="uARda2XG1U_MiIhJAIZU-13" value="程序计数器" style="rounded=0;whiteSpace=wrap;html=1;fontSize=12;fillColor=#b1ddf0;strokeColor=#10739e;" parent="1" vertex="1">
          <mxGeometry x="470" y="430" width="250" height="60" as="geometry" />
        </mxCell>
        <mxCell id="uARda2XG1U_MiIhJAIZU-14" style="edgeStyle=none;html=1;exitX=0.5;exitY=1;exitDx=0;exitDy=0;fontSize=12;" parent="1" source="uARda2XG1U_MiIhJAIZU-15" target="uARda2XG1U_MiIhJAIZU-5" edge="1">
          <mxGeometry relative="1" as="geometry" />
        </mxCell>
        <mxCell id="uARda2XG1U_MiIhJAIZU-15" value="&lt;font style=&quot;font-size: 12px&quot;&gt;java 运行类&lt;/font&gt;" style="rounded=0;whiteSpace=wrap;html=1;fontSize=20;" parent="1" vertex="1">
          <mxGeometry x="760" y="180" width="120" height="60" as="geometry" />
        </mxCell>
      </root>
    </mxGraphModel>
  </diagram>
</mxfile>
